HIERARCHY
ROOT Hips
{
	OFFSET 0.000000 0.000000 0.000000
	CHANNELS 6 Xposition Yposition Zposition Zrotation Yrotation Xrotation 
	JOINT LeftUpLeg_virtual
	{
		OFFSET 0.000000 0.000000 0.000000
		CHANNELS 3 Zrotation Yrotation Xrotation
		JOINT LeftUpLeg
		{
			OFFSET 8.479694 -4.795517 -0.379053
			CHANNELS 3 Zrotation Yrotation Xrotation
			JOINT LeftLeg
			{
				OFFSET 0.485052 -32.551468 0.112863
				CHANNELS 3 Zrotation Yrotation Xrotation
				JOINT LeftFoot
				{
					OFFSET 0.438033 -32.635670 -3.012641
					CHANNELS 3 Zrotation Yrotation Xrotation
					JOINT LeftToeBase
					{
						OFFSET 0.970169 -13.225353 11.864223
						CHANNELS 3 Zrotation Yrotation Xrotation
						End Site
						{
							OFFSET 0.000000 0.000000 0.000000
						}
					}
				}
			}
		}
	}
	JOINT RightUpLeg_virtual
	{
		OFFSET 0.000000 0.000000 0.000000
		CHANNELS 3 Zrotation Yrotation Xrotation
		JOINT RightUpLeg
		{
			OFFSET -8.479694 -4.795517 -0.379053
			CHANNELS 3 Zrotation Yrotation Xrotation
			JOINT RightLeg
			{
				OFFSET -0.484100 -32.551483 0.112903
				CHANNELS 3 Zrotation Yrotation Xrotation
				JOINT RightFoot
				{
					OFFSET -0.438985 -32.635651 -3.012681
					CHANNELS 3 Zrotation Yrotation Xrotation
					JOINT RightToeBase
					{
						OFFSET -0.970169 -13.225354 11.864223
						CHANNELS 3 Zrotation Yrotation Xrotation
						End Site
						{
							OFFSET 0.000000 0.000000 0.000000
						}
					}
				}
			}
		}
	}
	JOINT Spine_virtual
	{
		OFFSET 0.000000 0.000000 0.000000
		CHANNELS 3 Zrotation Yrotation Xrotation
		JOINT Spine
		{
			OFFSET 0.000000 7.722015 1.166203
			CHANNELS 3 Zrotation Yrotation Xrotation
			JOINT Spine1
			{
				OFFSET 0.000000 12.024086 0.248766
				CHANNELS 3 Zrotation Yrotation Xrotation
				JOINT Spine2
				{
					OFFSET -0.000000 11.503036 -0.491240
					CHANNELS 3 Zrotation Yrotation Xrotation
					JOINT Neck_virtual
					{
						OFFSET 0.000000 0.000000 0.000000
						CHANNELS 3 Zrotation Yrotation Xrotation
						JOINT Neck
						{
							OFFSET 0.000000 18.430687 -3.123054
							CHANNELS 3 Zrotation Yrotation Xrotation
							JOINT Head
							{
								OFFSET -0.000000 9.051071 1.034021
								CHANNELS 3 Zrotation Yrotation Xrotation
								End Site
								{
									OFFSET 0.000000 0.000000 0.000000
								}
							}
						}
					}
					JOINT LeftShoulder_virtual
					{
						OFFSET 0.000000 0.000000 0.000000
						CHANNELS 3 Zrotation Yrotation Xrotation
						JOINT LeftShoulder
						{
							OFFSET 6.197824 13.665230 -4.064723
							CHANNELS 3 Zrotation Yrotation Xrotation
							JOINT LeftArm
							{
								OFFSET 7.778132 -0.187073 -1.709282
								CHANNELS 3 Zrotation Yrotation Xrotation
								JOINT LeftForeArm
								{
									OFFSET 21.954697 0.000000 -2.041093
									CHANNELS 3 Zrotation Yrotation Xrotation
									JOINT LeftHand
									{
										OFFSET 22.992908 0.000000 -0.870901
										CHANNELS 3 Zrotation Yrotation Xrotation
										End Site
										{
											OFFSET 0.000000 0.000000 0.000000
										}
									}
								}
							}
						}
					}
					JOINT RightShoulder_virtual
					{
						OFFSET 0.000000 0.000000 0.000000
						CHANNELS 3 Zrotation Yrotation Xrotation
						JOINT RightShoulder
						{
							OFFSET -6.197824 13.665230 -4.064723
							CHANNELS 3 Zrotation Yrotation Xrotation
							JOINT RightArm
							{
								OFFSET -7.778132 -0.187073 -1.709282
								CHANNELS 3 Zrotation Yrotation Xrotation
								JOINT RightForeArm
								{
									OFFSET -21.954697 0.000000 -2.041093
									CHANNELS 3 Zrotation Yrotation Xrotation
									JOINT RightHand
									{
										OFFSET -22.992908 0.000000 -0.870901
										CHANNELS 3 Zrotation Yrotation Xrotation
										End Site
										{
											OFFSET 0.000000 0.000000 0.000000
										}
									}
								}
							}
						}
					}
				}
			}
		}
	}
}
MOTION
Frames: 13
Frame Time: 0.033333
2.433652 81.177727 20.353844 179.877963 4.202066 -179.839974 -4.571349 -1.707445 8.916787 1.358443 4.184380 -24.506913 6.593103 4.423392 32.766859 2.833081 -8.984230 -12.583338 0.000000 0.000000 0.000000 -1.152185 -2.110969 7.589006 -0.006824 3.324320 -19.881458 -0.722005 3.847729 30.770750 7.941907 7.163367 -11.448582 0.000000 0.000000 0.000000 -0.354087 1.033011 -3.463529 0.469006 -1.538366 -3.875647 -1.738774 -1.783310 7.348338 0.028429 0.030055 0.054541 -2.243276 -0.372855 7.200674 -3.472877 -0.694536 -8.627588 0.000000 0.000000 0.000000 -0.202009 0.209666 4.905373 -7.821315 0.693166 4.617195 -63.732167 -2.970547 14.762590 1.891495 -42.431054 11.520390 0.000000 0.000000 0.000000 -4.643914 1.776028 4.058815 28.192453 -0.372357 5.523152 54.844565 0.330647 17.451955 -5.136414 30.829193 -4.497287 0.000000 0.000000 0.000000 
2.544567 81.177574 20.365194 179.873633 4.084917 -179.703288 -3.879925 -1.494862 9.110985 0.539960 4.236681 -24.446876 7.000923 4.443179 33.016243 2.728115 -9.162935 -12.654056 0.000000 0.000000 0.000000 -1.071092 -2.036178 7.508787 0.200915 2.866381 -20.048132 -0.634635 3.660637 31.134772 8.060633 7.262640 -11.225098 0.000000 0.000000 0.000000 -0.286533 1.129554 -3.537718 0.508857 -1.570064 -3.966958 -1.711904 -1.790651 7.336954 0.037217 0.053642 0.033545 -2.256721 -0.319125 7.302146 -3.348048 -0.821710 -8.626976 0.000000 0.000000 0.000000 -0.222527 0.160523 5.039495 -7.856249 0.615432 4.642812 -63.427240 -3.023309 14.532952 2.026368 -42.246042 11.322314 0.000000 0.000000 0.000000 -4.631159 1.611159 4.185560 28.182660 -0.176793 5.476333 54.867644 0.486944 17.650488 -5.133136 31.041366 -4.499944 0.000000 0.000000 0.000000 
2.651574 81.180283 20.399963 179.853743 3.833252 -179.709790 -3.480229 -1.401886 9.131663 0.123063 4.305739 -24.540083 7.050770 4.234983 32.931542 2.484534 -9.373962 -12.451373 0.000000 0.000000 0.000000 -1.057232 -1.983866 7.525140 0.282398 2.706472 -20.063927 -0.665656 3.616793 31.188153 7.946213 7.175526 -11.276792 0.000000 0.000000 0.000000 -0.216753 1.201102 -3.630398 0.468347 -1.630325 -4.006609 -1.561336 -1.805410 7.382859 0.002551 0.037669 0.025641 -2.161955 -0.331521 7.406226 -2.985692 -1.065757 -8.572170 0.000000 0.000000 0.000000 -0.153290 0.191811 5.144824 -8.016019 0.404950 4.506202 -62.970212 -3.139424 13.958995 1.951158 -41.930668 11.253077 0.000000 0.000000 0.000000 -4.613167 1.668573 4.276246 28.122168 -0.063317 5.577954 54.896655 0.722996 18.372610 -5.307618 31.327441 -4.557203 0.000000 0.000000 0.000000 
2.708152 81.209557 20.456167 179.879534 3.623948 -179.724298 -3.866334 -1.356854 9.080407 0.778213 4.303545 -24.570893 6.856833 4.391613 33.072623 2.348904 -9.409524 -12.526488 0.000000 0.000000 0.000000 -1.001720 -1.857679 7.519035 0.356662 2.625117 -20.005587 -0.696892 3.534665 31.117167 7.799589 7.068599 -11.210508 0.000000 0.000000 0.000000 -0.228137 1.236833 -3.772816 0.650424 -1.723792 -3.995600 -1.531081 -1.807384 7.482120 0.037570 0.055286 0.028875 -2.062484 -0.334013 7.555814 -2.304807 -1.273152 -8.456801 0.000000 0.000000 0.000000 -0.124761 0.207174 5.233615 -8.284278 0.124188 4.473942 -62.415300 -3.352237 13.285751 2.055402 -41.483222 10.923522 0.000000 0.000000 0.000000 -4.571385 1.687212 4.393726 27.900812 0.160241 5.661929 54.985338 0.791712 19.116576 -5.449618 31.678134 -4.534385 0.000000 0.000000 0.000000 
2.733053 81.235199 20.534227 179.831272 3.314660 -179.742971 -4.064941 -1.298369 8.962384 1.103509 4.262994 -24.502686 6.628946 4.366579 33.088162 2.324889 -9.526931 -12.544046 0.000000 0.000000 0.000000 -1.022229 -1.768053 7.447564 0.405762 2.469548 -19.907939 -0.707245 3.477059 31.083757 7.656869 6.971730 -11.160307 0.000000 0.000000 0.000000 -0.283973 1.320997 -3.972571 0.684736 -1.825835 -3.932493 -1.421871 -1.805631 7.639698 -0.003985 0.055611 0.041950 -1.836015 -0.252871 7.725583 -1.447476 -1.609513 -8.303662 0.000000 0.000000 0.000000 0.028407 0.135638 5.412688 -8.589710 -0.322765 4.387825 -61.779116 -3.589556 12.397792 2.021917 -41.062254 10.749113 0.000000 0.000000 0.000000 -4.385776 1.577629 4.514985 27.592725 0.387174 5.571065 55.146872 0.738786 20.092238 -5.713565 32.206733 -4.568944 0.000000 0.000000 0.000000 
2.705796 81.245468 20.617563 179.874070 3.015869 -179.779636 -4.223681 -1.173523 8.807484 1.441740 4.210366 -24.391051 6.344259 4.301482 33.099011 2.375330 -9.571044 -12.679281 0.000000 0.000000 0.000000 -0.985799 -1.580401 7.346948 0.455300 2.327419 -19.776833 -0.740215 3.438496 31.083412 7.519692 6.854003 -11.166376 0.000000 0.000000 0.000000 -0.340747 1.439777 -4.194304 0.737231 -1.965385 -3.852359 -1.258541 -1.828466 7.865282 0.028763 0.057144 -0.021357 -1.707812 -0.415293 7.970016 -0.519357 -1.894341 -8.164583 0.000000 0.000000 0.000000 0.075477 0.134890 5.603782 -8.875161 -0.693447 4.286995 -61.037603 -3.815184 11.479350 1.957582 -40.832199 10.580412 0.000000 0.000000 0.000000 -4.360434 1.602662 4.722740 27.198322 0.643174 5.584904 55.333610 0.575989 20.929826 -6.054385 32.746700 -4.672442 0.000000 0.000000 0.000000 
2.599426 81.240540 20.687164 179.853689 2.729459 -179.806615 -4.322562 -0.997352 8.640998 1.542387 4.179313 -24.280266 6.167246 4.256413 33.052528 2.375906 -9.678568 -12.755264 0.000000 0.000000 0.000000 -0.992604 -1.344929 7.253227 0.446907 2.235252 -19.681310 -0.782086 3.385986 31.146646 7.415434 6.727766 -11.233706 0.000000 0.000000 0.000000 -0.448268 1.672821 -4.390047 0.724916 -2.033377 -3.760278 -1.141973 -1.790058 8.024960 0.023378 -0.077833 0.051086 -1.507618 -0.408508 8.197549 0.486044 -2.217227 -8.004136 0.000000 0.000000 0.000000 0.208654 0.040115 5.774476 -9.045418 -1.178291 4.145482 -60.293345 -4.025928 10.720451 1.935379 -40.771551 10.414437 0.000000 0.000000 0.000000 -4.266665 1.688835 4.751096 26.911307 0.811366 5.558816 55.471094 0.390232 21.610742 -6.351743 33.407842 -4.674701 0.000000 0.000000 0.000000 
2.394778 81.221481 20.753098 179.824551 2.592564 -179.837201 -4.392516 -0.781379 8.525830 1.472153 4.187353 -24.214071 6.034890 4.291368 32.979538 2.402450 -9.818720 -12.796174 0.000000 0.000000 0.000000 -1.064665 -1.006477 7.204580 0.399071 2.241939 -19.635308 -0.880379 3.299526 31.201725 7.344522 6.574569 -11.305952 0.000000 0.000000 0.000000 -0.553053 1.821894 -4.551649 0.716913 -2.192996 -3.716455 -1.038950 -1.853669 8.204053 0.052975 0.036693 0.026598 -1.406061 -0.451889 8.459339 1.458193 -2.503680 -7.874989 0.000000 0.000000 0.000000 0.235877 0.092739 6.007013 -9.226006 -1.511588 3.974019 -59.688033 -4.272776 10.285032 1.828031 -40.790651 10.387654 0.000000 0.000000 0.000000 -4.184619 1.567707 5.085645 26.595664 1.186715 5.523043 55.526819 0.177152 22.267743 -6.638826 33.910216 -4.756773 0.000000 0.000000 0.000000 
2.059811 81.201813 20.854944 179.943834 2.524975 -179.831313 -4.149507 -0.669274 8.478532 1.106550 4.202905 -24.251642 6.031655 4.437808 32.883574 2.489446 -9.895345 -12.759194 0.000000 0.000000 0.000000 -0.950792 -0.790530 7.185235 0.189522 2.325757 -19.668580 -1.000483 3.411147 31.193959 7.449973 6.529685 -11.356930 0.000000 0.000000 0.000000 -0.508840 1.972882 -4.644846 0.776590 -2.265601 -3.740612 -0.963481 -1.850868 8.370119 0.014157 0.030750 0.031995 -1.351423 -0.485505 8.669669 2.321971 -2.898155 -7.758043 0.000000 0.000000 0.000000 0.280917 0.016942 6.099634 -9.334808 -1.827030 3.756852 -59.400871 -4.395840 10.116065 1.746114 -40.901888 10.462215 0.000000 0.000000 0.000000 -4.132864 1.581372 5.260998 26.406915 1.433142 5.523739 55.345631 -0.126851 22.696920 -6.890014 34.413403 -4.767922 0.000000 0.000000 0.000000 
1.615600 81.192513 21.019222 179.761167 2.598650 -179.836490 -4.208567 -0.619262 8.499876 0.645456 4.199183 -24.375521 6.026950 4.663405 32.758243 2.699462 -9.885729 -12.693791 0.000000 0.000000 0.000000 -1.179401 -0.638901 7.182629 -0.085588 2.658337 -19.796670 -1.176565 3.499677 31.157274 7.770673 6.603697 -11.259624 0.000000 0.000000 0.000000 -0.593187 2.041390 -4.636243 0.731836 -2.318417 -3.769328 -0.966549 -1.850919 8.523495 0.008577 0.022059 0.033365 -1.217797 -0.412789 8.776652 3.124994 -3.007044 -7.688712 0.000000 0.000000 0.000000 0.393996 0.023210 6.229880 -9.462542 -2.087842 3.618846 -59.260682 -4.532941 10.075975 1.681775 -41.036849 10.572752 0.000000 0.000000 0.000000 -4.021554 1.604968 5.413992 26.256506 1.657965 5.502845 55.115207 -0.311587 22.747306 -7.122189 34.704068 -4.812448 0.000000 0.000000 0.000000 
1.050909 81.186539 21.244804 179.888468 2.773915 -179.829401 -4.122332 -0.604339 8.577465 0.184631 4.342385 -24.607075 6.014013 4.885665 32.674324 2.930901 -9.845557 -12.612631 0.000000 0.000000 0.000000 -0.866471 -0.709544 7.203588 -0.664830 2.722753 -20.060056 -1.129424 4.002412 31.218452 8.015276 6.571681 -11.224513 0.000000 0.000000 0.000000 -0.421200 2.036008 -4.558699 0.862115 -2.336728 -3.813060 -0.943123 -1.829325 8.578433 -0.038638 0.026354 0.050106 -1.184994 -0.530372 8.846527 3.725066 -3.157102 -7.600769 0.000000 0.000000 0.000000 0.404191 0.130404 6.414712 -9.557667 -2.384425 3.343683 -59.272668 -4.518243 10.293346 1.557836 -41.315159 10.829378 0.000000 0.000000 0.000000 -3.948870 1.653536 5.491633 26.062125 1.695499 5.410807 54.801678 -0.324011 22.538019 -7.263782 34.894047 -4.776329 0.000000 0.000000 0.000000 
0.385870 81.174683 21.530960 179.940295 3.093264 -179.798924 -4.104828 -0.637090 8.663229 -0.353760 4.617806 -24.933916 6.038064 5.177533 32.604560 3.126045 -9.738994 -12.513954 0.000000 0.000000 0.000000 -0.751576 -0.874296 7.204356 -1.337708 3.228313 -20.496547 -1.146542 4.459780 31.265638 8.354015 6.612929 -11.003505 0.000000 0.000000 0.000000 -0.240580 1.954896 -4.440329 1.019059 -2.368917 -3.851606 -0.925792 -1.835082 8.620823 0.011072 0.028598 0.025463 -1.275463 -0.489242 8.951602 4.245807 -3.439378 -7.502392 0.000000 0.000000 0.000000 0.339606 0.142091 6.470928 -9.721561 -2.502233 3.274995 -59.546860 -4.329256 10.669987 1.590452 -41.898050 10.977771 0.000000 0.000000 0.000000 -3.978572 1.672768 5.704481 25.862387 2.037844 5.388957 54.434354 -0.169190 22.209716 -7.432740 35.021662 -4.786659 0.000000 0.000000 0.000000 
-0.328374 81.145744 21.814911 179.892716 3.461159 -179.768093 -4.147289 -0.733616 8.740146 -1.071526 4.897340 -25.249078 6.156323 5.500889 32.533755 3.240293 -9.546428 -12.378976 0.000000 0.000000 0.000000 -0.672365 -0.970680 7.246884 -1.959722 3.130826 -21.080776 -1.139957 5.013227 31.495273 8.832247 6.819368 -10.638223 0.000000 0.000000 0.000000 -0.099403 1.679149 -4.341344 1.166398 -2.366824 -3.859036 -0.935914 -1.574029 8.662488 -0.001687 0.124215 0.037574 -1.241719 -0.428029 9.010645 4.714171 -3.470530 -7.407869 0.000000 0.000000 0.000000 0.372812 0.092894 6.548655 -9.798154 -2.595808 3.078094 -59.907664 -3.948236 10.883240 1.350809 -42.621668 11.367813 0.000000 0.000000 0.000000 -3.927607 1.658362 5.774754 25.719038 2.091069 5.420395 54.132927 0.253184 21.941184 -7.659314 35.052770 -4.895631 0.000000 0.000000 0.000000 
